<svg version="1.0" xmlns="http://www.w3.org/2000/svg" width="682.667" height="682.667" viewBox="0 0 512 512">
  <path d="M241 15C138.1 21.6 50.6 93.1 24 192.5c-9.8 36.4-10.6 77.6-2.4 114.4C35.3 368.4 72.7 422.2 126 457.3c27.8 18.2 64.5 31.9 99.5 36.9 13.7 2 50.3 1.7 64.5-.5 30.6-4.8 57.6-14 82.9-28.2 11.6-6.5 14.3-9.6 14.8-16.9.7-9.3-6.1-16.6-15.3-16.6-3.2 0-7.8 1.9-20.5 8.3-51.8 26.3-106.9 30.8-160.9 13.1C117.1 429.2 64 367 50.3 288.5c-2.4-14-2.4-50.9 0-65 5.4-31.1 15.9-57.6 33.2-83.5 31.6-47.4 79.7-78.6 137.8-89.2 16.1-3 52.7-3.2 67.7-.5 31.9 5.9 58 16.3 83.6 33.6 50.4 33.7 83.5 88.9 90.4 150.6 3 26.8-.7 60.5-9.4 86.4-5.7 16.8-10.3 22.7-21.6 28-4.6 2.2-6.9 2.6-14 2.6-7.1-.1-9.4-.5-14.1-2.8-6.6-3.2-14.1-10.7-17.2-17.4l-2.2-4.8-.5-94.2c-.5-93.1-.5-94.2-2.6-96.9-3.9-5.3-7.1-6.9-13.4-6.9-6.3 0-9.5 1.6-13.4 6.9-1.9 2.5-2.1 4.4-2.4 19.2l-.3 16.5-7.7-7.3c-17.8-17-37.7-27.5-62.2-32.9-13.7-3.1-37-3.3-50-.6-39.9 8.4-71.9 32.4-89.7 67.3-10.6 20.7-13.8 34.7-13.8 59.4.1 15.6.4 18.7 2.8 28.3 6.2 25 17.5 44.8 35.4 62.4 17.4 17.1 39.1 28.6 64.3 34 11.9 2.5 38.1 2.5 50-.1 25.3-5.5 45.6-16.4 64.3-34.5 5.3-5.2 9.8-9.2 10-9 .2.2 1.2 2.4 2.2 4.9 6.1 14.4 18 27.1 31.8 33.8 19.1 9.4 39.2 9.4 58.7 0 6.8-3.2 10.1-5.7 16.6-12.2 9.5-9.5 13.8-16.9 18.7-31.6 9.5-28.6 13.5-56.3 12.3-85.5-2.3-61.3-25.2-115.8-66.9-159.1C379.8 37.5 311 10.6 241 15zm38.5 148c18.3 4.9 30.5 12 44 25.5 13.6 13.7 20.6 25.9 25.6 44.5 3 11 3.3 33.7.6 44.4-4.7 18.6-12.5 32.4-26.2 46.1-17.9 17.8-37.3 26.7-62 28.1-28.8 1.7-56-9.3-76.2-31-10.6-11.4-18-25.1-22.5-41.6-2.9-10.9-3.2-33.4-.5-44.4 4.4-17.8 12.8-32.7 25.7-45.7 15.1-15.3 33-24.6 53.5-27.9 9.6-1.5 28.8-.5 38 2z"/>
</svg>