<svg version="1.0" xmlns="http://www.w3.org/2000/svg" width="682.667" height="682.667" viewBox="0 0 512 512">
  <path d="M58.5 5.1C32 9.2 10.3 28.3 2.4 54.5c-2.5 8.3-2.5 27.7 0 36 6.5 21.8 23.2 39.3 44.5 46.9 7.8 2.8 9.7 3 21.1 3 17.2 0 27.6-3.3 41-13.3 11.7-8.7 23.3-26.7 26-40.5 1.6-7.7 1.6-23 0-29.7-1.8-8-8.2-20.6-14.1-27.7-8.8-10.7-23.3-20-35.9-23C78.2 4.5 65.3 4 58.5 5.1zM83 23.7c14.4 4 26.5 15.1 33 30.3 3.5 8.2 4 24.3 1.1 33.8-6.7 22.2-29.6 38-51.5 35.7-17.9-1.9-32-10-40.6-23.4-9.1-14.3-10.1-33.7-2.6-49.6C33.1 27.8 57.9 16.8 83 23.7zM363.9 150c-24.9 2.4-49.1 13-66.2 29-4.1 3.9-7.8 7-8.1 7-.3 0-.6-3.3-.6-7.3 0-8.6-1.8-12.7-7.3-17.1l-3.9-3.1h-96.4l-4.1 2.7c-8 5.3-7.3-10.1-7.1 173l.3 163.3 2.2 3.1c1.3 1.7 4 4 6 5 3.5 1.8 7.2 1.9 53.1 2.2 32.3.2 50.6-.1 53.2-.8 4.2-1.1 9.3-4.9 11.3-8.4.9-1.6 1.3-25.7 1.7-102.1.5-97.8.6-100.1 2.6-105.6 10.8-29.5 40.3-41.1 68.6-26.8 7.1 3.6 15.5 11.6 18.3 17.4 4.9 10.5 4.8 8.5 5.4 115.1l.6 100.1 2.8 3.6c5.7 7.5 3.7 7.2 56.3 7.2h47l3.6-2.4c1.9-1.3 4.6-4 5.9-5.9l2.4-3.6.3-115c.3-119.4.1-125.9-3.9-141.6-11.2-44.5-46.2-77.9-90.7-87-11.8-2.4-39.2-3.4-53.3-2zm37.6 17c24.6 2.2 44 10.9 61.5 27.7 15.1 14.3 24.6 31.6 29.7 53.8 1.7 7.5 1.8 15.1 1.8 125v117h-84L410 392c-.6-96.8-.6-98.6-2.7-106.2-4.9-17.5-14.5-29.2-30.7-37.4-36.9-18.9-78.6-.9-92.2 39.6-1.8 5.2-1.9 11.6-2.4 104l-.5 98.5-46.8.3-46.7.2V175h85l.1 27.2v27.3l20.2-20.6c22.8-23.2 25.2-25.2 37.1-31.3 19.6-10 41.4-13.3 71.1-10.6zM25 159.3c-5.2 1.7-13.6 10.3-14.9 15.4-.8 2.9-1 48.8-.9 160l.3 155.8 3 4.5c4.3 6.3 10.4 10.6 17 12 3.7.8 17.4 1 42.2.8l36.8-.3 5.5-3.1c6.2-3.5 11.4-9.6 13-15.2.6-2.5 1-54.3 1-156.4 0-150.1 0-152.8-2-158.1-2.3-6.2-7.6-11.7-14-14.6-4.3-2-6.3-2.1-44-2-26 .1-40.7.5-43 1.2zm82.7 18.1 2.8 2.4.3 152.3c.2 169.1.8 155.8-6.5 157.9-2.6.8-15.3 1-38.6.8l-34.9-.3-2.4-2.8-2.4-2.8v-305l2.5-2.4 2.4-2.5h74l2.8 2.4z"/>
</svg>